<svg width="300" height="200" viewBox="0 0 300 200" fill="none" xmlns="http://www.w3.org/2000/svg">
  <rect width="300" height="200" fill="#f3f4f6"/>
  <path d="M150 80C158.284 80 165 73.2843 165 65C165 56.7157 158.284 50 150 50C141.716 50 135 56.7157 135 65C135 73.2843 141.716 80 150 80Z" fill="#9ca3af"/>
  <path d="M120 120C120 108.954 128.954 100 140 100H160C171.046 100 180 108.954 180 120V130C180 141.046 171.046 150 160 150H140C128.954 150 120 141.046 120 130V120Z" fill="#9ca3af"/>
  <rect x="80" y="60" width="140" height="80" rx="8" fill="#e5e7eb" stroke="#d1d5db" stroke-width="2"/>
  <text x="150" y="105" text-anchor="middle" fill="#6b7280" font-family="Arial" font-size="14">No Image</text>
</svg>